<?xml version="1.0" encoding="utf-8"?>
<!-- Generator: Adobe Illustrator 24.2.1, SVG Export Plug-In . SVG Version: 6.00 Build 0)  -->
<svg version="1.1" id="Layer_1" xmlns="http://www.w3.org/2000/svg" xmlns:xlink="http://www.w3.org/1999/xlink" x="0px" y="0px"
	 viewBox="0 0 1201 1200" style="enable-background:new 0 0 1201 1200;" xml:space="preserve">
<style type="text/css">
	.st0{fill:#E6E6E6;}
	.st1{fill:#A062A5;}
	.st2{fill:#262626;}
</style>
<g id="_x23_e6e6e6ff">
	<path class="st0" d="M594.8,1082.1c6.6-1.1,15.2-0.8,19.1,5.7c3.9,7.6,2.8,16.6,3.1,24.9c-0.5,13,1,26.3-1,39.3
		c-1.9,15.8-30,15.8-31.8-0.1c-2.1-15.8-0.6-31.9-1-47.8C582.9,1095.7,584.4,1083.5,594.8,1082.1z"/>
	<path class="st0" d="M851.5,1085.2c9.3-1.5,19-0.9,28.1,1.6c2.7,7.8,2.7,16.1,0,23.9c-9.2,2.5-18.8,3-28.2,1.6
		c-4.8-2.7-3.1-8.9-3.6-13.4C848.4,1094.2,846.5,1087.9,851.5,1085.2z"/>
</g>
<g id="_x23_a062a5ff">
	<path class="st1" d="M573.1,1.3c62.5-5.4,126.6,5.6,182.8,33.9C852.6,82.3,923.3,178,940.7,284.1c5.9,30.7,4.5,62,4.6,93.1
		c0.3,7-2.1,14.5-8.1,18.6c-6,5-14.3,4-21.5,4.2c-25.4-0.3-50.8,0.1-76.2-0.1c-11,0.6-20.6-9.1-20.7-19.9
		c-1.4-22.5,1.4-45.3-2.1-67.7c-7.2-52.3-34.4-101.7-75.1-135.5c-35.5-29.9-81-47.7-127.4-49.9c-78.2-4-155.3,39.2-196.6,104.9
		c-18.2,29.5-29.4,63.2-31.8,97.7c-1.4,17,0,34-0.8,51c-0.2,10.8-10.4,20.5-21.4,19.6c-28.4-0.1-56.7,0.1-85.1-0.1
		c-9.6,0.4-18.3-7.6-19.7-16.9c-3.2-55.1,2.3-111.4,23.1-162.9C328.1,100.4,445.4,12.1,573.1,1.3z"/>
</g>
<g id="_x23_262626ff">
	<path class="st2" d="M25.8,465.4c6.8-3.1,14.6-2.1,21.9-2.3c25.2,0.4,50.5-0.4,75.7,0.3c9.4,0,17.5,8.5,17.2,17.8
		c0.3,94.9-0.1,189.8,0.1,284.7c1.3,22.8-1.1,46.6,8,68.2c5.5,13.1,18.4,22,32.2,24.2c15.9,2.6,33.1,2.5,47.9-4.5
		c10.5-5,17.7-15.2,20.9-26.2c6-19.9,5.1-40.9,5.1-61.5c0-88.4,0.1-176.8,0-265.2c0.1-9.1-0.8-18.6,2.4-27.3
		c3.2-7.3,11.4-10.6,19-10.5c25.2-0.3,50.5,0.1,75.7-0.2c7.6,0.1,16.3-0.6,22.6,4.7c5.7,4.6,6.3,12.5,6.5,19.3
		c0,106.1-0.1,212.3,0,318.4c0,28.2-3.2,56.7-13.4,83.1c-11.2,30-32.5,56.3-60.5,72.1c-34,19.6-74.1,25.6-112.8,24.7
		c-47.7,0.3-98.8-11.6-133.4-46.4C28,906.5,15.9,859,15.3,814.1c-0.1-109,0-218-0.1-326.9C14.8,478.8,17.6,469.3,25.8,465.4z"/>
	<path class="st2" d="M459.7,465c7.9-2.8,16.6-1.6,24.9-1.8c24.3,0.4,48.7-0.6,72.9,0.5c10.3,0.5,17,10.4,16.4,20.2
		c0.1,112.8,0.1,225.7,0,338.5c0,6.3,0.5,13.4,5.2,18.1c5.2,5.6,13.4,6.4,20.6,6.6c53.7,0.1,107.4-0.1,161,0.1
		c10.3-0.8,18.9,8.5,18.7,18.5c0.6,26-0.1,51.9,0.3,77.9c-0.1,7.7,0.5,16.5-4.9,22.7c-4.9,5.6-12.9,6.2-19.8,6.2
		c-94.9-0.2-189.9,0.1-284.8-0.1c-9.1,0.4-19-4.9-20.9-14.3c-1.6-8.5-0.6-17.2-0.8-25.8c0-149.4,0.1-298.8,0-448.2
		C448.1,476.4,451.9,467.7,459.7,465z"/>
	<path class="st2" d="M829.5,465.7c5.7-2.9,12.3-2.5,18.5-2.6c24.4,0.2,48.8,0,73.2,0.1c6.4,0.1,13.7,0.5,18.6,5.4
		c4.8,4.8,5.6,12,5.6,18.5c-0.1,98.7-0.1,197.4,0,296.2c1,20,0.6,41.8,12.4,59c10,14.3,28.8,17.8,45.1,17.6
		c16.3,0.1,35-3.8,44.7-18.3c11.2-17.2,11-38.8,11.9-58.6c0-98.6,0-197.2,0-295.9c-0.1-6.8,0.7-14.4,6.3-19c5.8-5.5,14.5-4.9,21.9-5
		c26.2,0.4,52.4-0.3,78.6,0.3c10-0.3,19,8.2,18.5,18.4c0.2,112.6,0,225.3,0.1,338c-1,43.8-14.5,89.5-46.7,120.7
		c-33.4,32.4-81.3,44.3-126.6,44.8c-48.8,1.6-101.6-6.9-139.6-40c-35.9-30.9-50.8-79.4-52-125.5c-0.1-111.9,0-223.8-0.1-335.8
		C819.6,476.8,822.6,468.8,829.5,465.7z"/>
	<path class="st2" d="M50.4,1053.3c15.9-9.8,36-9.9,53.7-5.4c20.2,4.9,36.7,25.6,33.2,46.7c-11.2,2.7-22.5,4.8-33.7,7.3
		c-4.1-7.5-6.7-18.3-16.6-19.7c-7.7-2.6-15.2,1.4-19.1,8.1c5.5,9.2,16.1,12.3,25.4,16.2c12.8,5,25.8,10.8,35.3,21.1
		c9.7,10.6,13.9,26.9,7.9,40.4c-5.7,14.9-19.2,25.9-34.5,29.6c-17.3,4.1-36.5,3.5-52.4-5c-14.5-7.9-22.7-24.3-22.9-40.4
		c0.6-0.9,1.7-2.7,2.3-3.7c9.8-3.3,19.9-5.2,30.1-6.9c5.8,3.3,4.1,11.6,8.5,16.1c8.1,8.5,25.4,7.9,30.8-3.3
		c0.9-7-6.3-10.7-11.6-13.1c-16.4-7.2-35.3-11.7-47.2-26.1C24.1,1096.8,30,1065.8,50.4,1053.3z"/>
	<path class="st2" d="M581.6,1047.2c18.5-3.9,39.8-3.1,55.4,8.8c12.1,9.3,16.5,25.1,16.6,39.8c0.1,16.9,0,33.8,0.1,50.8
		c0.1,14.2-2.9,29.7-13.6,40c-12.7,12.5-31.9,14.7-48.9,13.1c-14.7-1.1-29.8-7.8-37.4-21c-10-16.4-6.8-36.4-7.3-54.6
		c0.5-16.8-2.1-34.3,3.9-50.4C555.2,1060.1,567.7,1050.2,581.6,1047.2 M594.8,1082.1c-10.4,1.4-11.9,13.5-11.7,22
		c0.4,15.9-1.1,32,1,47.8c1.9,15.9,29.9,15.9,31.8,0.1c2-13,0.5-26.2,1-39.3c-0.3-8.3,0.8-17.3-3.1-24.9
		C610,1081.4,601.4,1081,594.8,1082.1z"/>
	<path class="st2" d="M281.1,1053.6c-0.4-6.3,7.3-5.7,11.5-5.7c34.9,0.3,69.8-0.4,104.7,0.3c4.4-0.5,5.8,4.5,5.5,8
		c0,9.5,1.5,19.5-2.3,28.5c-13.1-0.2-26.2-0.6-39.2,0.6c-3.7,35.9,0,72.3-1.9,108.3c-0.5,0.8-1.5,2.3-2.1,3.1
		c-10.1,1-20.3,1-30.3,0.1c-0.6-0.7-2-2-2.6-2.6c-1.1-27.1-0.1-54.3-0.4-81.4c-0.4-8.8,1.2-18.1-1.8-26.6
		c-12.3-3.6-25.7-0.9-38.4-1.4C278.7,1075.2,281.1,1064,281.1,1053.6z"/>
	<path class="st2" d="M814.2,1048.6c14-1.5,28.1-0.2,42.1-0.6c16.4-0.1,34.9,0,48.2,11.2c13.5,11.8,14.7,31.5,13.6,48.2
		c-0.7,13.2-6.3,25.9-16.9,34.1c7.2,15.4,16.5,29.7,23.6,45.1c2.4,4.3-2.1,9.5-6.5,9.7c-9.5,0.5-19.4,1.7-28.7-0.9
		c-9.1-14.8-16.4-30.7-24.7-46c-5.4,0.9-12.7-1.9-16.3,3.5c-1.7,12.8,0.4,25.7-0.9,38.5c-0.7,5.5-6.6,4.9-10.6,5.3
		c-7.8,0-15.8,0.8-23.3-1.3c-2.9-3.4-2.4-7.9-2.5-11.9c0.2-41.4,0.1-82.8,0.1-124.2C811.3,1055.4,811.6,1051.4,814.2,1048.6
		 M851.5,1085.2c-5,2.7-3.2,9-3.7,13.7c0.5,4.5-1.2,10.7,3.6,13.4c9.4,1.4,19,0.9,28.2-1.6c2.7-7.8,2.7-16.1,0-23.9
		C870.5,1084.3,860.8,1083.7,851.5,1085.2z"/>
	<path class="st2" d="M1052.7,1050.1c13.5-3.6,28.6-3.1,42.2-0.8c8.8,14.2,12,31.3,20.2,45.9c5.6-13.3,10.5-26.8,16.1-40.1
		c1.4-3,2.7-7.4,6.9-6.9c12.8,0.1,26.2-2.3,38.5,2c-12.3,30.1-26.7,59.3-39.3,89.3c-3,18,0.5,36.5-1.6,54.7c-0.8,0.6-2.4,2-3.2,2.6
		c-11.2,0.9-22.5,0.6-33.7,0.2c-4.3,0.5-5.6-4.8-5.4-8c-1-16.6,1.5-33.5-1.1-49.9C1079.4,1109.3,1065.1,1080.1,1052.7,1050.1z"/>
</g>
</svg>
