<?xml version="1.0" encoding="utf-8"?>
<!-- Generator: Adobe Illustrator 24.2.1, SVG Export Plug-In . SVG Version: 6.00 Build 0)  -->
<svg version="1.1" id="Layer_1" xmlns="http://www.w3.org/2000/svg" xmlns:xlink="http://www.w3.org/1999/xlink" x="0px" y="0px"
	 viewBox="0 0 510 429" style="enable-background:new 0 0 510 429;" xml:space="preserve">
<style type="text/css">
	.st0{fill:#A062A5;}
	.st1{fill:#F7F7F7;}
</style>
<g id="_x23_ffffffff">
</g>
<g id="_x23_a062a5ff">
	<path class="st0" d="M243.8,0h25.5c10.2,1.8,20.5,3.1,30.4,6.4c10.3,3,19.9,7.6,29.3,12.7c31.2,17.6,55.7,46.7,67.4,80.6
		c7.2,20.3,9.6,42,8.6,63.4c-0.1,4.9-4.1,9.3-9,9.8c-6.6,0.7-13.3,0-19.9,0.1c-5.9-0.1-11.8,0.6-17.6-0.5c-3.5-0.6-6.3-3.5-6.9-6.9
		c-1.2-6.5-0.2-13.1-0.5-19.6c-0.3-16.4-4.7-32.8-13.2-46.8c-12.9-21.7-34.9-37.9-59.6-43.4c-9.9-2.4-20.2-1.9-30.3-1.7
		c-21.4,1.3-41.6,11.3-57.2,25.7c-6.1,5.7-11.7,11.9-15.9,19.1c-6.3,10.8-11.5,22.4-13.2,34.9c-1.6,9.7,0.1,19.4-0.9,29.1
		c-0.3,3.7-2.2,7.7-5.9,9.1c-5.1,1.8-10.6,1.1-15.9,1.1c-7.6-0.3-15.3,0.4-22.9-0.2c-3.5-0.2-7.3-2-8.4-5.5
		c-1.3-4.7-0.7-9.6-0.8-14.4c-1.6-46.3,21-92.3,57.6-120.4c12.9-10.2,27.4-18.8,43-24C219.3,4.3,231.5,2,243.8,0z"/>
</g>
<g id="_x23_262626ff">
	<path class="st1" d="M3.3,203.3c2.5-1.7,5.8-1.3,8.6-1.4c11,0.2,22.1,0,33.1,0c3,0.1,7.2,0.2,8.2,3.7c1.3,4.3,0.6,8.9,0.7,13.4
		c-0.1,35,0,70,0,105c0,7.4-0.2,14.8,0.6,22.2c0.6,7.4,1,15.4,5.8,21.4c3.6,4.7,9.8,6.4,15.5,6.5c6.2,0.1,12.9,0.5,18.4-2.8
		c4.9-2.7,7.6-7.9,8.8-13.1c1.3-5.6,1.8-11.5,1.8-17.2c-0.1-43,0-86.1-0.1-129.1c0.1-2.9,0.4-6.2,2.7-8.2c1.9-1.9,4.8-1.6,7.3-1.8
		c11.4,0.1,22.8,0.1,34.1,0c2.5,0.2,5.4-0.2,7.3,1.8c2.3,2.1,2.6,5.3,2.7,8.2c-0.1,47.4,0,94.7,0,142.1
		c-0.5,16.5-4.1,33.5-13.9,47.1c-9.2,13.1-24.1,21.1-39.4,24.6c-12,3.1-24.5,2.3-36.8,2.2c-13.2-0.8-26.4-4.3-37.8-11.1
		c-12.2-7.5-21.5-19.5-25.9-33.2c-3.3-8.8-3.9-18.3-5.3-27.6V209.5C0.9,207.3,1.6,205,3.3,203.3z"/>
	<path class="st1" d="M194.3,202.3c12.2-0.8,24.5,0,36.7-0.4c3.2,0.2,6.9-0.7,9.5,1.6c2.1,1.8,2.5,4.7,2.5,7.4
		c-0.1,47,0,94-0.1,141.1c0.1,4.4-0.6,9.3,1.8,13.2c2.3,3.2,6.5,3.8,10.2,3.8c22.7-0.1,45.4,0,68.1-0.1c2.9,0,6.3,0.3,8.2,2.8
		c1.9,3,1.8,6.8,1.8,10.2c-0.1,9.3-0.1,18.7,0,28c0,3.4,0.2,7.1-2.1,9.9c-2.1,2.6-5.7,3-8.8,3.1c-40.4,0-80.8,0-121.1,0
		c-3.2-0.1-6.9-0.3-9.3-2.7c-2.2-2.1-2.6-5.3-2.7-8.2c0-66.7,0-133.4,0-200.1C189,208.2,190.1,203.4,194.3,202.3z"/>
	<path class="st1" d="M353.7,203.7c2.2-2,5.5-1.7,8.2-1.8c11,0.1,22.1,0.1,33.1,0c2.5,0.2,5.4-0.2,7.4,1.7c2.3,2.1,2.5,5.4,2.6,8.3
		c-0.1,42.7,0,85.4-0.1,128.1c0,6.1,0.5,12.3,1.8,18.3c1.3,5.2,4,10.5,8.8,13.1c4.6,2.8,10.2,2.9,15.4,2.8c5.6,0,11.6-0.5,16.1-4.2
		c5.1-4.2,7.1-10.9,7.7-17.2c0.5-6.3,1.2-12.5,1.2-18.9c-0.1-40.7,0.1-81.4-0.1-122.1c0.1-2.7,0-5.9,2.1-8c2-2.1,5.3-2,8-2.1
		c10.4,0.1,20.7,0.2,31.1,0c2.8,0.1,5.7-0.1,8.4,0.7c2.8,1.1,3.5,4.4,4.6,6.8v146.6c-1,6.1-1.4,12.3-2.6,18.3
		c-2.6,12-7.8,23.7-16.4,32.6c-9.6,10.4-23,16.5-36.7,19.2c-11.6,2.6-23.5,1.8-35.3,1.7c-18.4-1.3-37.5-7.8-50.1-21.8
		C356.1,392,351.5,372.6,351,354c0-47,0.1-94.1,0-141.1C351.1,209.7,351.2,206,353.7,203.7z"/>
</g>
</svg>
